<svg width="13" height="13" viewBox="0 0 13 13" fill="none" xmlns="http://www.w3.org/2000/svg">
<g clip-path="url(#clip0_204_68)">
<path d="M7.07945 1.12229L8.43289 3.86471C8.527 4.05545 8.70898 4.18762 8.9195 4.21816L11.946 4.65796C12.4762 4.73505 12.6877 5.38637 12.3042 5.76008L10.1142 7.89475C9.96205 8.04319 9.89246 8.2572 9.92851 8.46672L10.4454 11.481C10.536 12.0089 9.98182 12.4114 9.50773 12.1623L6.80085 10.7393C6.61261 10.6404 6.38758 10.6404 6.19934 10.7393L3.49246 12.1623C3.01837 12.4116 2.46418 12.0089 2.55479 11.481L3.07168 8.46672C3.10773 8.2572 3.03814 8.04319 2.88595 7.89475L0.695965 5.76008C0.312485 5.38612 0.524 4.7348 1.05416 4.65796L4.0807 4.21816C4.29121 4.18762 4.47319 4.05545 4.5673 3.86471L5.92075 1.12229C6.15754 0.641936 6.8424 0.641936 7.07945 1.12229Z" fill="url(#paint0_linear_204_68)"/>
</g>
<defs>
<linearGradient id="paint0_linear_204_68" x1="15.5" y1="7" x2="-2.61466e-07" y2="7" gradientUnits="userSpaceOnUse">
<stop stop-color="#A38A00"/>
<stop offset="1" stop-color="#D4B300"/>
</linearGradient>
<clipPath id="clip0_204_68">
<rect width="12" height="12" fill="white" transform="translate(0.5 0.5)"/>
</clipPath>
</defs>
</svg>
